<svg xmlns="http://www.w3.org/2000/svg" xmlns:xlink="http://www.w3.org/1999/xlink" width="500" zoomAndPan="magnify" viewBox="0 0 375 374.999991" height="500" preserveAspectRatio="xMidYMid meet" version="1.0"><defs><g/><clipPath id="6b0a0d1083"><rect x="0" width="165" y="0" height="285"/></clipPath><clipPath id="ff88c917f6"><rect x="0" width="375" y="0" height="87"/></clipPath><clipPath id="2c38394ef9"><rect x="0" width="162" y="0" height="231"/></clipPath></defs><rect x="-37.5" width="450" fill="#ffffff" y="-37.499999" height="449.999989" fill-opacity="1"/><rect x="-37.5" width="450" fill="#ffffff" y="-37.499999" height="449.999989" fill-opacity="1"/><g transform="matrix(1, 0, 0, 1, -0.000000000000000111, 0)"><g clip-path="url(#6b0a0d1083)"><g fill="#000000" fill-opacity="1"><g transform="translate(1.095605, 208.720548)"><g><path d="M 26.65625 -48.59375 L 123.84375 -95.9375 C 126.34375 -97.1875 128.640625 -98.226562 130.734375 -99.0625 C 132.828125 -99.90625 134.707031 -100.535156 136.375 -100.953125 C 138.050781 -101.578125 139.617188 -101.992188 141.078125 -102.203125 L 141.078125 -104.40625 C 139.617188 -104.613281 138.050781 -105.03125 136.375 -105.65625 C 132.820312 -106.28125 128.644531 -107.847656 123.84375 -110.359375 L 26.65625 -158.640625 L 26.65625 -186.546875 L 161.453125 -119.140625 L 161.453125 -87.78125 L 26.65625 -20.375 Z M 26.65625 -48.59375 "/></g></g></g></g></g><g transform="matrix(1, 0, 0, 1, 0, 226)"><g clip-path="url(#ff88c917f6)"><g fill="#000000" fill-opacity="1"><g transform="translate(-3.43933, 68.787056)"><g><path d="M 30.28125 -58.46875 L 36.984375 -58.46875 L 11.96875 7.75 L 5.28125 7.75 Z M 30.28125 -58.46875 "/></g></g></g><g fill="#000000" fill-opacity="1"><g transform="translate(38.823205, 68.787056)"><g><path d="M 6.203125 -51.421875 L 12.53125 -51.421875 L 12.53125 -38.734375 C 12.53125 -38.078125 12.519531 -37.363281 12.5 -36.59375 C 12.476562 -35.820312 12.441406 -35.101562 12.390625 -34.4375 C 12.296875 -33.644531 12.226562 -32.847656 12.1875 -32.046875 L 12.75 -32.046875 C 13.363281 -34.398438 14.597656 -36.21875 16.453125 -37.5 C 18.304688 -38.789062 20.617188 -39.4375 23.390625 -39.4375 C 25.304688 -39.4375 27.050781 -39.109375 28.625 -38.453125 C 30.207031 -37.796875 31.546875 -36.867188 32.640625 -35.671875 C 33.742188 -34.472656 34.601562 -33.039062 35.21875 -31.375 C 35.832031 -29.707031 36.140625 -27.84375 36.140625 -25.78125 L 36.140625 0 L 29.796875 0 L 29.796875 -24.71875 C 29.796875 -27.675781 29.039062 -29.976562 27.53125 -31.625 C 26.03125 -33.269531 23.941406 -34.09375 21.265625 -34.09375 C 18.585938 -34.09375 16.460938 -33.210938 14.890625 -31.453125 C 13.316406 -29.691406 12.53125 -27.304688 12.53125 -24.296875 L 12.53125 0 L 6.203125 0 Z M 6.203125 -51.421875 "/></g></g></g><g fill="#000000" fill-opacity="1"><g transform="translate(81.08574, 68.787056)"><g><path d="M 11.96875 -14.4375 C 11.96875 -11.476562 12.773438 -9.15625 14.390625 -7.46875 C 16.015625 -5.78125 18.257812 -4.9375 21.125 -4.9375 C 23.945312 -4.9375 26.175781 -5.78125 27.8125 -7.46875 C 29.457031 -9.15625 30.28125 -11.476562 30.28125 -14.4375 L 30.28125 -24.296875 C 30.28125 -27.253906 29.457031 -29.578125 27.8125 -31.265625 C 26.175781 -32.960938 23.945312 -33.8125 21.125 -33.8125 C 18.3125 -33.8125 16.082031 -32.960938 14.4375 -31.265625 C 12.789062 -29.578125 11.96875 -27.253906 11.96875 -24.296875 Z M 5.640625 -24.296875 C 5.640625 -26.648438 6 -28.753906 6.71875 -30.609375 C 7.445312 -32.460938 8.476562 -34.046875 9.8125 -35.359375 C 11.15625 -36.671875 12.773438 -37.675781 14.671875 -38.375 C 16.578125 -39.082031 18.726562 -39.4375 21.125 -39.4375 C 25.914062 -39.4375 29.695312 -38.097656 32.46875 -35.421875 C 35.238281 -32.753906 36.625 -29.070312 36.625 -24.375 L 36.625 -14.4375 C 36.625 -12.09375 36.269531 -9.976562 35.5625 -8.09375 C 34.863281 -6.21875 33.84375 -4.632812 32.5 -3.34375 C 31.164062 -2.050781 29.535156 -1.050781 27.609375 -0.34375 C 25.679688 0.351562 23.519531 0.703125 21.125 0.703125 C 18.726562 0.703125 16.578125 0.351562 14.671875 -0.34375 C 12.773438 -1.050781 11.15625 -2.0625 9.8125 -3.375 C 8.476562 -4.695312 7.445312 -6.296875 6.71875 -8.171875 C 6 -10.046875 5.640625 -12.132812 5.640625 -14.4375 Z M 5.640625 -24.296875 "/></g></g></g><g fill="#000000" fill-opacity="1"><g transform="translate(123.348275, 68.787056)"><g><path d="M 4.359375 -38.734375 L 9.375 -38.734375 L 9.375 -33.03125 L 9.859375 -33.03125 C 10.046875 -35.101562 10.703125 -36.6875 11.828125 -37.78125 C 12.960938 -38.882812 14.46875 -39.4375 16.34375 -39.4375 C 18.21875 -39.4375 19.765625 -38.882812 20.984375 -37.78125 C 22.210938 -36.6875 23.0625 -35.101562 23.53125 -33.03125 L 23.875 -33.03125 C 24.0625 -35.101562 24.71875 -36.6875 25.84375 -37.78125 C 26.976562 -38.882812 28.484375 -39.4375 30.359375 -39.4375 C 32.753906 -39.4375 34.609375 -38.554688 35.921875 -36.796875 C 37.234375 -35.035156 37.890625 -32.609375 37.890625 -29.515625 L 37.890625 0 L 32.40625 0 L 32.40625 -29.515625 C 32.40625 -31.160156 32.039062 -32.414062 31.3125 -33.28125 C 30.582031 -34.144531 29.535156 -34.578125 28.171875 -34.578125 C 25.304688 -34.578125 23.875 -32.769531 23.875 -29.15625 L 23.875 0 L 18.390625 0 L 18.390625 -29.515625 C 18.390625 -30.878906 18.070312 -32.0625 17.4375 -33.0625 C 16.800781 -34.070312 15.707031 -34.578125 14.15625 -34.578125 C 12.75 -34.578125 11.644531 -34.0625 10.84375 -33.03125 C 10.1875 -32.09375 9.859375 -30.800781 9.859375 -29.15625 L 9.859375 0 L 4.359375 0 Z M 4.359375 -38.734375 "/></g></g></g><g fill="#000000" fill-opacity="1"><g transform="translate(165.61081, 68.787056)"><g><path d="M 21.125 0.703125 C 16.289062 0.703125 12.5 -0.609375 9.75 -3.234375 C 7.007812 -5.867188 5.640625 -9.488281 5.640625 -14.09375 L 5.640625 -24.65625 C 5.640625 -29.257812 7.007812 -32.875 9.75 -35.5 C 12.5 -38.125 16.289062 -39.4375 21.125 -39.4375 C 25.96875 -39.4375 29.757812 -38.125 32.5 -35.5 C 35.25 -32.875 36.625 -29.257812 36.625 -24.65625 L 36.625 -17.53125 L 11.96875 -17.53125 L 11.96875 -14.4375 C 11.96875 -11.476562 12.773438 -9.15625 14.390625 -7.46875 C 16.015625 -5.78125 18.257812 -4.9375 21.125 -4.9375 C 23.238281 -4.9375 25.070312 -5.265625 26.625 -5.921875 C 28.175781 -6.578125 29.328125 -7.535156 30.078125 -8.796875 L 36.421875 -8.796875 C 35.617188 -5.835938 33.84375 -3.515625 31.09375 -1.828125 C 28.351562 -0.140625 25.03125 0.703125 21.125 0.703125 Z M 30.28125 -22.828125 L 30.28125 -24.65625 C 30.28125 -27.5625 29.484375 -29.8125 27.890625 -31.40625 C 26.296875 -33.007812 24.039062 -33.8125 21.125 -33.8125 C 18.21875 -33.8125 15.960938 -33.007812 14.359375 -31.40625 C 12.765625 -29.8125 11.96875 -27.5625 11.96875 -24.65625 L 11.96875 -22.828125 Z M 30.28125 -22.828125 "/></g></g></g><g fill="#000000" fill-opacity="1"><g transform="translate(207.873345, 68.787056)"><g><path d="M 30.28125 -58.46875 L 36.984375 -58.46875 L 11.96875 7.75 L 5.28125 7.75 Z M 30.28125 -58.46875 "/></g></g></g><g fill="#40a9ff" fill-opacity="1"><g transform="translate(250.141065, 68.787056)"><g><path d="M 4.21875 -38.734375 L 15.5 -38.734375 L 15.5 -50.71875 L 21.828125 -50.71875 L 21.828125 -38.734375 L 36.984375 -38.734375 L 36.984375 -32.96875 L 21.828125 -32.96875 L 21.828125 -10 C 21.828125 -8.6875 22.238281 -7.65625 23.0625 -6.90625 C 23.882812 -6.15625 25 -5.78125 26.40625 -5.78125 L 36.28125 -5.78125 L 36.28125 0 L 26.40625 0 C 23.070312 0 20.421875 -0.914062 18.453125 -2.75 C 16.484375 -4.582031 15.5 -7 15.5 -10 L 15.5 -32.96875 L 4.21875 -32.96875 Z M 4.21875 -38.734375 "/></g></g></g><g fill="#40a9ff" fill-opacity="1"><g transform="translate(292.4036, 68.787056)"><g><path d="M 7.890625 -38.734375 L 13.875 -38.734375 L 13.875 -32.046875 L 14.4375 -32.046875 C 15.050781 -34.347656 16.316406 -36.15625 18.234375 -37.46875 C 20.160156 -38.78125 22.535156 -39.4375 25.359375 -39.4375 C 29.441406 -39.4375 32.644531 -38.15625 34.96875 -35.59375 C 37.289062 -33.039062 38.453125 -29.535156 38.453125 -25.078125 L 38.453125 -22.890625 L 32.125 -22.890625 L 32.125 -24.296875 C 32.125 -27.347656 31.359375 -29.707031 29.828125 -31.375 C 28.304688 -33.039062 26.132812 -33.875 23.3125 -33.875 C 20.539062 -33.875 18.332031 -33.015625 16.6875 -31.296875 C 15.050781 -29.585938 14.234375 -27.253906 14.234375 -24.296875 L 14.234375 0 L 7.890625 0 Z M 7.890625 -38.734375 "/></g></g></g><g fill="#40a9ff" fill-opacity="1"><g transform="translate(334.666135, 68.787056)"><g><path d="M 6.203125 -51.421875 L 12.53125 -51.421875 L 12.53125 -38.734375 C 12.53125 -38.078125 12.519531 -37.363281 12.5 -36.59375 C 12.476562 -35.820312 12.441406 -35.101562 12.390625 -34.4375 C 12.296875 -33.644531 12.226562 -32.847656 12.1875 -32.046875 L 12.75 -32.046875 C 13.363281 -34.398438 14.597656 -36.21875 16.453125 -37.5 C 18.304688 -38.789062 20.617188 -39.4375 23.390625 -39.4375 C 25.304688 -39.4375 27.050781 -39.109375 28.625 -38.453125 C 30.207031 -37.796875 31.546875 -36.867188 32.640625 -35.671875 C 33.742188 -34.472656 34.601562 -33.039062 35.21875 -31.375 C 35.832031 -29.707031 36.140625 -27.84375 36.140625 -25.78125 L 36.140625 0 L 29.796875 0 L 29.796875 -24.71875 C 29.796875 -27.675781 29.039062 -29.976562 27.53125 -31.625 C 26.03125 -33.269531 23.941406 -34.09375 21.265625 -34.09375 C 18.585938 -34.09375 16.460938 -33.210938 14.890625 -31.453125 C 13.316406 -29.691406 12.53125 -27.304688 12.53125 -24.296875 L 12.53125 0 L 6.203125 0 Z M 6.203125 -51.421875 "/></g></g></g></g></g><g transform="matrix(1, 0, 0, 1, 128, 0)"><g clip-path="url(#2c38394ef9)"><g fill="#000000" fill-opacity="1"><g transform="translate(0.825428, 160.174749)"><g><path d="M 17.53125 7.296875 L 157.75 7.296875 L 157.75 29.21875 L 17.53125 29.21875 Z M 17.53125 7.296875 "/></g></g></g></g></g></svg>