<svg xmlns="http://www.w3.org/2000/svg" xmlns:xlink="http://www.w3.org/1999/xlink" width="500" zoomAndPan="magnify" viewBox="0 0 375 374.999991" height="500" preserveAspectRatio="xMidYMid meet" version="1.0"><defs><g/></defs><g fill="#000000" fill-opacity="1"><g transform="translate(2.906254, 206.149981)"><g><path d="M 33.90625 -35.640625 L 33.90625 -28.453125 L 22.296875 -28.453125 L 22.296875 0 L 13.015625 0 L 13.015625 -28.453125 L 1.34375 -28.453125 L 1.34375 -35.640625 Z M 33.90625 -35.640625 "/></g></g></g><g fill="#000000" fill-opacity="1"><g transform="translate(38.160555, 206.149981)"><g><path d="M 3.296875 0 L 3.296875 -38.453125 L 12.46875 -38.453125 L 12.46875 -22.09375 C 13.257812 -23.882812 14.394531 -25.238281 15.875 -26.15625 C 17.351562 -27.082031 19.0625 -27.546875 21 -27.546875 C 22.875 -27.546875 24.503906 -27.179688 25.890625 -26.453125 C 27.273438 -25.734375 28.363281 -24.671875 29.15625 -23.265625 C 29.945312 -21.867188 30.34375 -20.109375 30.34375 -17.984375 L 30.34375 0 L 21.171875 0 L 21.171875 -15.4375 C 21.171875 -17.382812 20.816406 -18.726562 20.109375 -19.46875 C 19.410156 -20.207031 18.484375 -20.578125 17.328125 -20.578125 C 16.460938 -20.578125 15.648438 -20.359375 14.890625 -19.921875 C 14.140625 -19.492188 13.546875 -18.8125 13.109375 -17.875 C 12.679688 -16.9375 12.46875 -15.710938 12.46875 -14.203125 L 12.46875 0 Z M 3.296875 0 "/></g></g></g><g fill="#000000" fill-opacity="1"><g transform="translate(71.633251, 206.149981)"><g><path d="M 12.421875 0.546875 C 10.585938 0.546875 8.976562 0.234375 7.59375 -0.390625 C 6.207031 -1.023438 5.113281 -2.046875 4.3125 -3.453125 C 3.519531 -4.859375 3.125 -6.695312 3.125 -8.96875 L 3.125 -27 L 12.3125 -27 L 12.3125 -11.125 C 12.3125 -9.394531 12.648438 -8.1875 13.328125 -7.5 C 14.015625 -6.820312 14.988281 -6.484375 16.25 -6.484375 C 16.894531 -6.484375 17.503906 -6.597656 18.078125 -6.828125 C 18.660156 -7.066406 19.164062 -7.425781 19.59375 -7.90625 C 20.03125 -8.394531 20.363281 -9.023438 20.59375 -9.796875 C 20.832031 -10.578125 20.953125 -11.488281 20.953125 -12.53125 L 20.953125 -27 L 30.125 -27 L 30.125 0 L 21.921875 0 L 21.65625 -5.078125 C 20.789062 -3.171875 19.582031 -1.753906 18.03125 -0.828125 C 16.488281 0.0859375 14.617188 0.546875 12.421875 0.546875 Z M 12.421875 0.546875 "/></g></g></g><g fill="#000000" fill-opacity="1"><g transform="translate(105.051953, 206.149981)"><g/></g></g><g fill="#000000" fill-opacity="1"><g transform="translate(120.492584, 206.149981)"><g><path d="M 20.953125 -35.640625 C 25.203125 -35.640625 28.503906 -34.640625 30.859375 -32.640625 C 33.210938 -30.640625 34.390625 -27.984375 34.390625 -24.671875 C 34.390625 -21.035156 33.21875 -18.265625 30.875 -16.359375 C 28.539062 -14.453125 25.25 -13.5 21 -13.5 L 20.140625 -13.015625 L 13.0625 -13.015625 L 13.0625 0 L 3.9375 0 L 3.9375 -35.640625 Z M 19.65625 -19.609375 C 21.457031 -19.609375 22.804688 -19.96875 23.703125 -20.6875 C 24.609375 -21.40625 25.0625 -22.554688 25.0625 -24.140625 C 25.0625 -25.679688 24.609375 -26.8125 23.703125 -27.53125 C 22.804688 -28.257812 21.457031 -28.625 19.65625 -28.625 L 13.0625 -28.625 L 13.0625 -19.609375 Z M 25.109375 -17.65625 L 36.5 0 L 26.25 0 L 17.125 -15.609375 Z M 25.109375 -17.65625 "/></g></g></g><g fill="#000000" fill-opacity="1"><g transform="translate(157.690469, 206.149981)"><g><path d="M 16.46875 0.546875 C 13.476562 0.546875 10.894531 -0.0078125 8.71875 -1.125 C 6.539062 -2.25 4.859375 -3.851562 3.671875 -5.9375 C 2.484375 -8.03125 1.890625 -10.550781 1.890625 -13.5 C 1.890625 -16.445312 2.484375 -18.960938 3.671875 -21.046875 C 4.859375 -23.140625 6.519531 -24.742188 8.65625 -25.859375 C 10.800781 -26.984375 13.257812 -27.546875 16.03125 -27.546875 C 18.875 -27.546875 21.296875 -26.992188 23.296875 -25.890625 C 25.296875 -24.796875 26.816406 -23.285156 27.859375 -21.359375 C 28.910156 -19.429688 29.4375 -17.222656 29.4375 -14.734375 C 29.4375 -14.085938 29.414062 -13.441406 29.375 -12.796875 C 29.34375 -12.148438 29.289062 -11.609375 29.21875 -11.171875 L 7.828125 -11.171875 L 7.828125 -16.09375 L 25.15625 -16.09375 L 20.796875 -14.421875 C 20.796875 -16.578125 20.40625 -18.226562 19.625 -19.375 C 18.851562 -20.53125 17.65625 -21.109375 16.03125 -21.109375 C 14.882812 -21.109375 13.90625 -20.835938 13.09375 -20.296875 C 12.28125 -19.765625 11.664062 -18.921875 11.25 -17.765625 C 10.84375 -16.609375 10.640625 -15.132812 10.640625 -13.34375 C 10.640625 -11.570312 10.875 -10.132812 11.34375 -9.03125 C 11.8125 -7.9375 12.476562 -7.144531 13.34375 -6.65625 C 14.207031 -6.175781 15.25 -5.9375 16.46875 -5.9375 C 17.832031 -5.9375 18.921875 -6.207031 19.734375 -6.75 C 20.546875 -7.289062 21.148438 -8.046875 21.546875 -9.015625 L 28.890625 -6.59375 C 28.390625 -5.039062 27.515625 -3.734375 26.265625 -2.671875 C 25.023438 -1.609375 23.550781 -0.804688 21.84375 -0.265625 C 20.132812 0.273438 18.34375 0.546875 16.46875 0.546875 Z M 16.46875 0.546875 "/></g></g></g><g fill="#000000" fill-opacity="1"><g transform="translate(188.949648, 206.149981)"><g><path d="M 7.890625 -30.125 C 6.015625 -30.125 4.648438 -30.472656 3.796875 -31.171875 C 2.953125 -31.878906 2.53125 -32.988281 2.53125 -34.5 C 2.53125 -36.050781 2.953125 -37.175781 3.796875 -37.875 C 4.648438 -38.582031 6.015625 -38.9375 7.890625 -38.9375 C 9.722656 -38.9375 11.070312 -38.582031 11.9375 -37.875 C 12.800781 -37.175781 13.234375 -36.050781 13.234375 -34.5 C 13.234375 -32.988281 12.800781 -31.878906 11.9375 -31.171875 C 11.070312 -30.472656 9.722656 -30.125 7.890625 -30.125 Z M 12.46875 -27 L 12.46875 0 L 3.296875 0 L 3.296875 -27 Z M 12.46875 -27 "/></g></g></g><g fill="#000000" fill-opacity="1"><g transform="translate(204.660222, 206.149981)"><g><path d="M 3.296875 0 L 3.296875 -27 L 11.5 -27 L 11.984375 -17.71875 L 10.96875 -18.734375 C 11.320312 -20.679688 11.957031 -22.300781 12.875 -23.59375 C 13.789062 -24.894531 14.941406 -25.878906 16.328125 -26.546875 C 17.710938 -27.210938 19.269531 -27.546875 21 -27.546875 C 22.875 -27.546875 24.503906 -27.179688 25.890625 -26.453125 C 27.273438 -25.734375 28.363281 -24.671875 29.15625 -23.265625 C 29.945312 -21.867188 30.34375 -20.109375 30.34375 -17.984375 L 30.34375 0 L 21.171875 0 L 21.171875 -15.546875 C 21.171875 -17.421875 20.8125 -18.71875 20.09375 -19.4375 C 19.375 -20.15625 18.453125 -20.515625 17.328125 -20.515625 C 16.460938 -20.515625 15.648438 -20.304688 14.890625 -19.890625 C 14.140625 -19.484375 13.546875 -18.828125 13.109375 -17.921875 C 12.679688 -17.023438 12.46875 -15.820312 12.46875 -14.3125 L 12.46875 0 Z M 3.296875 0 "/></g></g></g><g fill="#000000" fill-opacity="1"><g transform="translate(238.132907, 206.149981)"><g/></g></g><g fill="#000000" fill-opacity="1"><g transform="translate(253.573549, 206.149981)"><g><path d="M 36.125 -35.640625 L 36.125 0 L 26.84375 0 L 26.84375 -35.640625 Z M 13.234375 -35.640625 L 13.234375 0 L 3.9375 0 L 3.9375 -35.640625 Z M 31.8125 -21.546875 L 31.8125 -14.359375 L 8.484375 -14.359375 L 8.484375 -21.546875 Z M 31.8125 -21.546875 "/></g></g></g><g fill="#000000" fill-opacity="1"><g transform="translate(293.632811, 206.149981)"><g><path d="M 14.578125 -35.578125 L 14.578125 -9.609375 C 14.578125 -8.316406 14.890625 -7.390625 15.515625 -6.828125 C 16.148438 -6.273438 17.023438 -6 18.140625 -6 C 19.003906 -6 19.75 -6.097656 20.375 -6.296875 C 21.007812 -6.492188 21.582031 -6.789062 22.09375 -7.1875 L 23.0625 -1.515625 C 22.15625 -0.867188 21.019531 -0.363281 19.65625 0 C 18.289062 0.363281 16.882812 0.546875 15.4375 0.546875 C 13.382812 0.546875 11.613281 0.257812 10.125 -0.3125 C 8.632812 -0.894531 7.484375 -1.816406 6.671875 -3.078125 C 5.859375 -4.335938 5.4375 -6.007812 5.40625 -8.09375 L 5.40625 -33.046875 Z M 22.625 -27 L 22.625 -20.46875 L 0.75 -20.46875 L 0.75 -27 Z M 22.625 -27 "/></g></g></g><g fill="#000000" fill-opacity="1"><g transform="translate(317.225675, 206.149981)"><g><path d="M 16.46875 0.546875 C 13.476562 0.546875 10.894531 -0.0078125 8.71875 -1.125 C 6.539062 -2.25 4.859375 -3.851562 3.671875 -5.9375 C 2.484375 -8.03125 1.890625 -10.550781 1.890625 -13.5 C 1.890625 -16.445312 2.484375 -18.960938 3.671875 -21.046875 C 4.859375 -23.140625 6.519531 -24.742188 8.65625 -25.859375 C 10.800781 -26.984375 13.257812 -27.546875 16.03125 -27.546875 C 18.875 -27.546875 21.296875 -26.992188 23.296875 -25.890625 C 25.296875 -24.796875 26.816406 -23.285156 27.859375 -21.359375 C 28.910156 -19.429688 29.4375 -17.222656 29.4375 -14.734375 C 29.4375 -14.085938 29.414062 -13.441406 29.375 -12.796875 C 29.34375 -12.148438 29.289062 -11.609375 29.21875 -11.171875 L 7.828125 -11.171875 L 7.828125 -16.09375 L 25.15625 -16.09375 L 20.796875 -14.421875 C 20.796875 -16.578125 20.40625 -18.226562 19.625 -19.375 C 18.851562 -20.53125 17.65625 -21.109375 16.03125 -21.109375 C 14.882812 -21.109375 13.90625 -20.835938 13.09375 -20.296875 C 12.28125 -19.765625 11.664062 -18.921875 11.25 -17.765625 C 10.84375 -16.609375 10.640625 -15.132812 10.640625 -13.34375 C 10.640625 -11.570312 10.875 -10.132812 11.34375 -9.03125 C 11.8125 -7.9375 12.476562 -7.144531 13.34375 -6.65625 C 14.207031 -6.175781 15.25 -5.9375 16.46875 -5.9375 C 17.832031 -5.9375 18.921875 -6.207031 19.734375 -6.75 C 20.546875 -7.289062 21.148438 -8.046875 21.546875 -9.015625 L 28.890625 -6.59375 C 28.390625 -5.039062 27.515625 -3.734375 26.265625 -2.671875 C 25.023438 -1.609375 23.550781 -0.804688 21.84375 -0.265625 C 20.132812 0.273438 18.34375 0.546875 16.46875 0.546875 Z M 16.46875 0.546875 "/></g></g></g><g fill="#000000" fill-opacity="1"><g transform="translate(348.484843, 206.149981)"><g><path d="M 14.578125 -35.578125 L 14.578125 -9.609375 C 14.578125 -8.316406 14.890625 -7.390625 15.515625 -6.828125 C 16.148438 -6.273438 17.023438 -6 18.140625 -6 C 19.003906 -6 19.75 -6.097656 20.375 -6.296875 C 21.007812 -6.492188 21.582031 -6.789062 22.09375 -7.1875 L 23.0625 -1.515625 C 22.15625 -0.867188 21.019531 -0.363281 19.65625 0 C 18.289062 0.363281 16.882812 0.546875 15.4375 0.546875 C 13.382812 0.546875 11.613281 0.257812 10.125 -0.3125 C 8.632812 -0.894531 7.484375 -1.816406 6.671875 -3.078125 C 5.859375 -4.335938 5.4375 -6.007812 5.40625 -8.09375 L 5.40625 -33.046875 Z M 22.625 -27 L 22.625 -20.46875 L 0.75 -20.46875 L 0.75 -27 Z M 22.625 -27 "/></g></g></g></svg>