<svg xmlns="http://www.w3.org/2000/svg" xmlns:xlink="http://www.w3.org/1999/xlink" width="500" zoomAndPan="magnify" viewBox="0 0 375 374.999991" height="500" preserveAspectRatio="xMidYMid meet" version="1.0"><defs><g/><clipPath id="6be52117c7"><rect x="0" width="374" y="0" height="211"/></clipPath></defs><rect x="-37.5" width="450" fill="#ffffff" y="-37.499999" height="449.999989" fill-opacity="1"/><rect x="-37.5" width="450" fill="#000000" y="-37.499999" height="449.999989" fill-opacity="1"/><g transform="matrix(1, 0, 0, 1, 1, 82)"><g clip-path="url(#6be52117c7)"><g fill="#ffffff" fill-opacity="1"><g transform="translate(2.687512, 165.603735)"><g><path d="M 113.21875 -118.984375 L 113.21875 -95.015625 L 74.453125 -95.015625 L 74.453125 0 L 43.453125 0 L 43.453125 -95.015625 L 4.5 -95.015625 L 4.5 -118.984375 Z M 113.21875 -118.984375 "/></g></g></g><g fill="#ffffff" fill-opacity="1"><g transform="translate(120.405051, 165.603735)"><g><path d="M 69.953125 -118.984375 C 84.128906 -118.984375 95.15625 -115.644531 103.03125 -108.96875 C 110.90625 -102.300781 114.84375 -93.441406 114.84375 -82.390625 C 114.84375 -70.253906 110.9375 -61 103.125 -54.625 C 95.3125 -48.25 84.3125 -45.0625 70.125 -45.0625 L 67.25 -43.453125 L 43.625 -43.453125 L 43.625 0 L 13.15625 0 L 13.15625 -118.984375 Z M 65.625 -65.4375 C 71.632812 -65.4375 76.140625 -66.640625 79.140625 -69.046875 C 82.148438 -71.453125 83.65625 -75.296875 83.65625 -80.578125 C 83.65625 -85.753906 82.148438 -89.539062 79.140625 -91.9375 C 76.140625 -94.34375 71.632812 -95.546875 65.625 -95.546875 L 43.625 -95.546875 L 43.625 -65.4375 Z M 83.828125 -58.953125 L 121.875 0 L 87.609375 0 L 57.15625 -52.09375 Z M 83.828125 -58.953125 "/></g></g></g><g fill="#ffffff" fill-opacity="1"><g transform="translate(244.612407, 165.603735)"><g><path d="M 120.609375 -118.984375 L 120.609375 0 L 89.59375 0 L 89.59375 -118.984375 Z M 44.171875 -118.984375 L 44.171875 0 L 13.15625 0 L 13.15625 -118.984375 Z M 106.1875 -71.9375 L 106.1875 -47.953125 L 28.296875 -47.953125 L 28.296875 -71.9375 Z M 106.1875 -71.9375 "/></g></g></g></g></g></svg>